<?xml version="1.0" encoding="UTF-8"?>
<!DOCTYPE svg PUBLIC "-//W3C//DTD SVG 1.1//EN" "http://www.w3.org/Graphics/SVG/1.1/DTD/svg11.dtd">
<!-- Creator: CorelDRAW -->
<svg xmlns="http://www.w3.org/2000/svg" xml:space="preserve" width="22px" height="21px" version="1.1" style="shape-rendering:geometricPrecision; text-rendering:geometricPrecision; image-rendering:optimizeQuality; fill-rule:evenodd; clip-rule:evenodd"
viewBox="0 0 0.16 0.15"
 xmlns:xlink="http://www.w3.org/1999/xlink"
 xmlns:xodm="http://www.corel.com/coreldraw/odm/2003"
 xmlns:dc="http://purl.org/dc/elements/1.1/"
 xmlns:cc="http://creativecommons.org/ns#"
 xmlns:rdf="http://www.w3.org/1999/02/22-rdf-syntax-ns#"
 xmlns:svg="http://www.w3.org/2000/svg"
 xmlns:sodipodi="http://sodipodi.sourceforge.net/DTD/sodipodi-0.dtd"
 xmlns:inkscape="http://www.inkscape.org/namespaces/inkscape"
 inkscape:version="1.0 (4035a4fb49, 2020-05-01)">
 <defs>
  <style type="text/css">
   <![CDATA[
    .fil0 {fill:black;fill-rule:nonzero}
   ]]>
  </style>
 </defs>
 <g id="Layer_x0020_1">
  <metadata id="CorelCorpID_0Corel-Layer"/>
  <g id="_2354007769920">
   <sodipodi:namedview inkscape:window-maximized="1" inkscape:window-y="-9" inkscape:window-x="-9" inkscape:window-height="991" inkscape:window-width="1920" showgrid="false" inkscape:document-rotation="0" inkscape:current-layer="layer1" inkscape:document-units="mm" inkscape:cy="144.93094" inkscape:cx="86.588287" inkscape:zoom="0.98994949" inkscape:pageshadow="2" inkscape:pageopacity="0.0" borderopacity="1.0" bordercolor="#666666" pagecolor="#ffffff" id="base"/>
   <g id="layer1" inkscape:groupmode="layer" inkscape:label="Livello 1">
    <path id="path11522" class="fil0" d="M0.08 0.12l0.02 -0.03 0 0.01 0.04 0c0,0 0.01,0 0.01,-0.01 -0.01,0.03 -0.01,0.05 -0.04,0.05l-0.01 0 0 0.01 -0.02 -0.03zm-0.04 0.02c-0.02,-0.01 -0.03,-0.03 -0.04,-0.05 0.01,0.01 0.01,0.01 0.02,0.01 0.01,0 0.02,0 0.02,0l0.03 0 0 0.04 0 0 -0.03 0zm-0.04 -0.06l0.01 -0.02 -0.01 -0.01 0.04 0 0.02 0.03 -0.02 -0.01c0,0.01 0,0.02 -0.01,0.03 0,0 -0.01,0 -0.01,0 -0.01,0 -0.02,-0.01 -0.02,-0.02zm0.12 0.02l-0.01 -0.03 0.03 -0.02 0.02 0.03c0,0.01 -0.02,0.02 -0.02,0.02l-0.02 0zm-0.09 -0.07l0.01 -0.03c0.02,0 0.03,0.01 0.04,0.02l-0.02 0.03 -0.03 -0.02zm0.06 0.01c0,-0.01 -0.01,-0.02 -0.01,-0.02 -0.01,-0.01 -0.01,-0.02 -0.02,-0.02l0.04 0c0.01,0 0.02,0.01 0.02,0.01l0.01 0.01 0.01 0 -0.02 0.03 -0.04 0 0.01 -0.01z"/>
   </g>
  </g>
 </g>
</svg>
